/* XPM */
static char *artemis_icon[] = {
/* columns rows colors chars-per-pixel */
"48 48 201 2",
"   c #42381D",
".  c #483F26",
"X  c #494124",
"o  c #4D462C",
"O  c #4B4632",
"+  c #4F4932",
"@  c #514B33",
"#  c #575035",
"$  c #585135",
"%  c #5B543A",
"&  c #61593D",
"*  c #5F5942",
"=  c #635D44",
"-  c #635D48",
";  c #6B5F43",
":  c #676046",
">  c #66614A",
",  c #6B6146",
"<  c #6B644B",
"1  c #696550",
"2  c #6E6952",
"3  c #706547",
"4  c #70664A",
"5  c #73694E",
"6  c #786A4C",
"7  c #736B54",
"8  c #746E59",
"9  c #7A6F54",
"0  c #777056",
"q  c #76725C",
"w  c #7C7156",
"e  c #7B745C",
"r  c #7B7662",
"t  c #7B7862",
"y  c #7C7C6B",
"u  c #817557",
"i  c #81775C",
"p  c #83795D",
"a  c #827C64",
"s  c #847F6A",
"d  c #8C7F62",
"f  c #868066",
"g  c #86826C",
"h  c #8C8165",
"j  c #8A846C",
"k  c #8D886E",
"l  c #838273",
"z  c #84857A",
"x  c #87887F",
"c  c #8B8672",
"v  c #8D8A75",
"b  c #8B8A7C",
"n  c #908264",
"m  c #90866D",
"M  c #938A6E",
"N  c #928C74",
"B  c #928E7A",
"V  c #998D73",
"C  c #998F78",
"Z  c #969176",
"A  c #95917B",
"S  c #9C9276",
"D  c #9B947C",
"F  c #9F987D",
"G  c #A19677",
"H  c #A2967C",
"J  c #A49A7C",
"K  c #A99D7D",
"L  c #AEA27E",
"P  c #B0A47F",
"I  c #8C8D82",
"U  c #949384",
"Y  c #95978C",
"T  c #9B9682",
"R  c #9E9A84",
"E  c #9C9B8C",
"W  c #969994",
"Q  c #9B9D91",
"!  c #999D9A",
"~  c #9FA092",
"^  c #9EA39E",
"/  c #A19680",
"(  c #A49C83",
")  c #A29E8B",
"_  c #A89E82",
"`  c #A7A085",
"'  c #A5A18C",
"]  c #AAA285",
"[  c #ABA48A",
"{  c #AFA88B",
"}  c #A4A392",
"|  c #A4A59B",
" . c #A6A89E",
".. c #AAA592",
"X. c #ACA995",
"o. c #ABAB9D",
"O. c #B1A584",
"+. c #B1A68B",
"@. c #B3A986",
"#. c #B2AB8C",
"$. c #B3AC92",
"%. c #B2AE9A",
"&. c #B9AE94",
"*. c #B7B192",
"=. c #B5B19C",
"-. c #B9B295",
";. c #BCB49C",
":. c #A3A6A1",
">. c #A6AAA4",
",. c #A6ACAC",
"<. c #ADAEA3",
"1. c #A9AEAD",
"2. c #A6AEB0",
"3. c #AFB0A5",
"4. c #ADB1AB",
"5. c #ACB3B3",
"6. c #AEB6B9",
"7. c #AFB9BD",
"8. c #B3B3A3",
"9. c #B3B4AA",
"0. c #B7B8AE",
"q. c #BBB5A4",
"w. c #BDB9A4",
"e. c #BCBAAA",
"r. c #B1B5B6",
"t. c #B1B6BB",
"y. c #B6BAB4",
"u. c #B2B9BE",
"i. c #BCBDB2",
"p. c #BEBFB9",
"a. c #AFBAC0",
"s. c #B4BCC2",
"d. c #B8BEC4",
"f. c #BFC1B6",
"g. c #BDC2BE",
"h. c #B6C0C6",
"j. c #B6C2CA",
"k. c #BAC1C6",
"l. c #BBC4CB",
"z. c #BCC8CE",
"x. c #BDC8D1",
"c. c #C2BCA4",
"v. c #C1BDAB",
"b. c #C2BFB4",
"n. c #C7C1A7",
"m. c #C4C2AC",
"M. c #C8C4AA",
"N. c #C5C4B4",
"B. c #C4C5BB",
"V. c #C6C8B7",
"C. c #C7C8BA",
"Z. c #C9C7B4",
"A. c #CCC9B4",
"S. c #CBCABB",
"D. c #D1CEBD",
"F. c #C2C5C3",
"G. c #C0C7CD",
"H. c #C5C9C4",
"J. c #C2C8CD",
"K. c #CBCCC3",
"L. c #CACDCA",
"P. c #C1C7D0",
"I. c #C3CBD4",
"U. c #C4CEDA",
"Y. c #C8CFD8",
"T. c #CFD1C3",
"R. c #CDD2CC",
"E. c #C7D0D6",
"W. c #C6D1DD",
"Q. c #CCD3D4",
"!. c #C9D4DE",
"~. c #CFDADB",
"^. c #D1CFC3",
"/. c #D5D3C2",
"(. c #D3D4CD",
"). c #D7D9CD",
"_. c #DADACE",
"`. c #D3D6D2",
"'. c #D4D9D4",
"]. c #D5DBDA",
"[. c #DADCD5",
"{. c #DADEDA",
"}. c #C9D6E1",
"|. c #CCD9E3",
" X c #D5DFE5",
".X c #DDE1DD",
"XX c #DCE3E4",
"oX c #DDE7E9",
"OX c #DEE8E7",
"+X c #DDE9EB",
"@X c #DDEBF1",
"#X c #E4E5DF",
"$X c #E0E6E6",
"%X c #E6E8E5",
"&X c #E2EBEB",
"*X c #E9EDEB",
"=X c #E7F2F5",
"-X c #E5F4FA",
";X c #E9F1F3",
":X c #E8F7FB",
">X c #EBFAFE",
/* pixels */
"I.I.I.I.I.I.I.P.P.I.P.P.P.P.P.P.G.P.P.G.P.P.G.F.G.F.d.d.d.d.d.d.d.d.d.d.d.d.t.d.t.t.d.t.t.r.t.r.",
"U.I.I.I.I.I.I.I.I.P.I.P.P.I.P.P.P.q.b.G.d.b./ / q.d.P.P.G.d.d.G.d.d.d.d.d.d.t.t.d.t.t.b.t.t.r.r.",
"I.U.I.I.I.U.I.I.I.I.I.I.P.P.L.P.L.&.q.q.&.+.+.+.d t.b.t.d.P.d.d.d.d.d.d.d.d.s.s.t.d.t.t.t.t.t.t.",
"U.U.U.U.U.I.U.I.I.I.I.I.I.P.Y.#Xq.q.b.+./ C C / / _ / d C b.P.d.l.d.d.d.s.d.d.s.d.t.t.s.t.t.t.t.",
"U.U.U.U.U.I.U.U.I.I.I.I.I.P.P.^.+.b.+.) ..) / d / C H / C s d.P.d.d.d.d.d.s.d.s.d.t.t.t.t.t.t.t.",
"W.U.U.U.U.U.U.I.I.I.I.I.I.P.!.D.b.b.+.&.%./ s u i d H +./ d 1.P.d.d.d.d.d.s.d.s.t.d.s.s.s.t.t.t.",
"W.W.U.U.U.U.U.I.I.I.Y.P.I.P.b.b.(.D.b.q.&.+./ C s _ / d s a 1.P.d.d.d.d.s.d.d.s.d.s.t.t.t.t.t.t.",
"W.W.U.U.U.U.U.U.Y.I.I.P.G.b.q.`.^.b.+./ ../ _ / / / s s a i 1.P.d.d.d.d.d.d.s.s.t.d.s.t.t.t.t.t.",
"W.!.U.U.W.U.U.U.U.U.U.U.L.q.^.[.q.C B _ ) T C C s s s s a d s ) r.k.d.d.d.d.s.s.s.s.d.t.a.t.t.t.",
"!.!.W.W.W.U.W.U.U.U.P.U.^.D.[.`.+.C C ..+.[ +./ / d d s s C d d d s.d.d.d.s.s.s.s.d.t.a.a.t.t.7.",
"}.}.W.W.U.W.W.U.U.U.U.U.F.[.b.^.] S _ $.&.=.$.+._ _ d / C s s a 2 W d.d.d.d.s.s.s.s.t.d.a.a.t.t.",
"}.W.W.}.}.U.W.U.U.U.U.P.F.F.q.b./ _ $.&.&.$.+.( / C u u s i i u 9 8 t.P.s.s.s.s.a.t.a.d.t.t.s.t.",
"}.U.}.U.}.U.W.W.U.U.U.I.L.F.b.q.a p / &.&.) _ / / C s 1 - s s i i - I d.s.s.s.d.s.a.a.a.s.t.t.t.",
"}.}.U.}.}.W.W.W.U.U.U.I.b.L.F.b. .s _ &.+.) ) / I C U s @ . , 8 s 1 s P.s.d.s.d.s.s.s.s.t.t.t.t.",
"}.}.}.}.W.W.W.W.U.U.U.U.b.L..X`.Q.%./ ) %.[ ) / C s C s s i * # i 2 W d.s.d.s.s.s.s.t.s.t.s.t.t.",
"}.}.}.}.}.W.W.W.U.U.U.U.t.^.%XY.H.B B / +.( / / C T I s s d . . 1 r a.d.d.s.s.s.s.s.s.t.u.u.u.u.",
"}.}.}.}.}.W.W.W.}.x.x.}.f.f.XX.Xb.<.....[ ( T U v v v v * o % o % I l.s.s.s.s.s.s.s.s.a.u.u.u.t.",
"}.}.}.}.}.}.W.W.W.}.}.x.z.f.oX.X'.b.q.&.+.R C C v v v v r > i - 2 2.z.s.j.d.s.s.s.s.s.s.u.u.u.t.",
"|.}.}.}.}.}.}.W.W.W.!.W.Q.f.R.-X$X`.e...D C v c c c c c j : j p 5 A t.h.s.s.s.s.s.s.s.a.u.u.u.t.",
"|.|.}.}.}.}.|.|.W.W.x.E.E.g.=.@X;X{...T j j j j c c c v a & 7 H p < >.l.j.s.d.j.s.s.s.s.u.u.u.u.",
"|.|.|.}.}.x.|.x.W.W.W.x.!.!.f.R.;X X..v j j j j j c v B j 0 $ 7 t t t.l.d.d.d.s.s.a.u.s.u.u.7.y.",
"|.|.|.|.}.}.}.}.x.}.W.}.x.!.x.R.{.`.<.U v j s j g v v B v 1 @ o * b h.k.d.d.s.s.s.s.s.s.u.u.7.t.",
"|.|.}.|.}.}.}.}.}.}.W.x.!.x.x.E.C.'.0...T j j v B B B B B = $ < < Y z.h.j.s.d.s.s.s.s.s.u.u.u.7.",
"|.|.|.}.}.}.}.|.x.x.W.}.!.x.W.!.B.Q.`.8...E T R D A N B B + X = q ,.j.h.j.z.l.d.s.s.7.u.u.u.u.7.",
"|.|.|.|.|.}.}.W.W.W.E.W.x.W.W.x.I.].{.B.0.$.( D D C N N B -   $ Y k.z.l.>.T | ~ ^ f.h.h.a.g.g.7.",
"|.|.|.|.}.}.W.}.W.W.W.E.E.W.x.E.P. X_.v.%.( A A C C B B v > 7 : 7 E 1.v 6 6 d u 7 k E Q ! 6.5.6.",
"|.|.|.|.|.}.}.W.W.E.B.n.w.;.f.H.U.$XD.c.../ F D N N B v v : 5 w 3 , , 3 9 n j 8 0 0 1 8 W g.g.6.",
"|.|.|.|.}.|.|.x.R.A.n.n.f.-.-.*.w.K.c.$.#.{ J D A C N N A o % 9 u p u p h d 0 2 t W ! 2.a.g.7.7.",
"|.|.|.|.}.}.}.~./.D.A.n.n.;.;.-.+.@.{ @.#.] K D N N N N b O o 7 4 5 p a e t b ^ z g.j.g.7.g.7.7.",
"|.|.|.|.}.}.XXOX).D.A.n.c.;.-.-.#.` O.O.L L J F Z k k N c * + & 7 < : = > z 5.6.>.h.7.7.7.7.6.7.",
"|.|.!.|.W.XX*X.X(.D.A.n.n.;.-.-.+.` _ ] ] P K D A v k N v : % : < 5 0 : 2 t a 8 :.j.h.7.7.7.6.6.",
"~.|.~.!.!.*X#X.X).D.A.n.-.*.-.#.] ] ( K ` @.@.F D Z v Z v I & $ : : : e q e > * b ^ 6.g.g.7.g.g.",
"V.S.V.n.).*X.X.X/.S.n.c.*.*.*.#.L ` [ K L ' ` A F F A A c :.g.1 $ % q q 2 q 8 y y t Y h.7.7.a.7.",
"S.V.w.;..X;X.X'.R.N.f.;.;.-.*.*.#.L L ' F L ` F L R F F A v 2.h.y = l h.2.2.2.g.g.2.7.a.g.6.7.g.",
"f.q.%.=..X@X.XR.T.f.f.f.;.;.-.*.#.#.{ ` [ F L L ' K R R D A l f.z.^ ^ z.h.j.h.h.h.h.h.h.h.a.7.a.",
"*.X.' ..`.-XXXR.B.f.n.;.c.f.-.*.*.{ { L ` ` F J L { ] F ' R A v U j.z.h.h.h.h.h.h.a.a.a.7.a.a.7.",
"%.R } } `.-XoXQ.R.S.S.M.M.n.c.*.*.*.#.{ ] ' L J F ` ] F F ' ` F k E h.j.h.h.h.h.a.h.h.7.7.7.7.g.",
"8.o.o.R ~.:XoXXX'.D.V.V.f.c.;.;.c.f.*.] { { { J K ` ` ' F J R F G Z Y f.g.h.h.h.h.h.7.h.h.7.a.6.",
"9.o. .U ~.:X&X.XK.R.D.V.f.f.f.n.f.L f f g Z F #.*.*.` { ' ` J F G Z N B b Y 4.j.h.7.h.7.7.h.a.a.",
"Q Q 3.b g.>X&XR..X'.f.S.M.=.X.] ' R K F Z f M { X.F v K ] ` { F G Z Z A b k k ~ 6.h.7.h.7.a.a.7.",
"A o. .U >.-X+XOX'.g.C.f.E E ' R F R E ` F F F K ` F v v F ` ] ` J Z A Z A A A v A 2.j.g.7.7.7.7.",
"~ ~ | Q Y @X-X+XR.'.X.v ~ ' A A } X.{ F Z Z Z F N k Z k k F ` ` L G F A F A Z A A U >.h.h.7.h.7.",
">.A ~ ~ I ~.-X~..XX.g ~ } '  .8.=.[ F Z F F F F ` A f Z F D J L { L Z Z A U Z A B v F  .h.a.6.7.",
"g.Y x Q I g.XX+Xf.f U 8.w.f.w.=.{ J R [ #.{ { { F f e a g Z A F L L F A R A b b A y g A W 7.a.7.",
"f.,.z Q Y f.R.).*.X.f.f.=.X.E A A R X.#.{ { ] k l A ' D v k v A F K J Z F F A A A g q k B E g.g.",
"2.f.^ 3.f. .3.f.f.f.*.X.R A A A R ' X.X.' k f k ] { [ [ ] U k v Z Z Z Z F A A A v g 2 a A Z b 2.",
"z.3. .o.Y y l Y ~ f.' ' R U R ' ` ' ' v q g J { #.X.#.{ ] ` ` k f k k g Z Z Z A v g 1 1 k Z t A ",
"|.z.3.k z y t t y ^ Q U U A } X.' A 2 8 Z { { #.#.X.#.{ { ` ` R f a t f Z Z Z A v g : : g N f f "
};
