/* XPM */
static char *athena_icon[] = {
/* columns rows colors chars-per-pixel */
"48 48 256 2",
"   c #030003",
".  c #050309",
"X  c #0B0404",
"o  c #0B0608",
"O  c #0D090B",
"+  c #0E0807",
"@  c #0D0C12",
"#  c #130C0C",
"$  c #1A0D0B",
"%  c #140807",
"&  c #120E12",
"*  c #1B110E",
"=  c #151114",
"-  c #1B1414",
";  c #1B1619",
":  c #1E1916",
">  c #1E1A1B",
",  c #151319",
"<  c #26140C",
"1  c #231613",
"2  c #231916",
"3  c #231D1C",
"4  c #2A1B15",
"5  c #2B1E1A",
"6  c #281614",
"7  c #351C0F",
"8  c #331D13",
"9  c #200F08",
"0  c #231E21",
"q  c #26201C",
"w  c #2C221D",
"e  c #2E2016",
"r  c #362215",
"t  c #33241C",
"y  c #3B2215",
"u  c #3B251B",
"i  c #3D291D",
"p  c #252223",
"a  c #26252A",
"s  c #27282E",
"d  c #2A2423",
"f  c #2A252A",
"g  c #2C2A2D",
"h  c #2D2823",
"j  c #2C2C33",
"k  c #2B2A36",
"l  c #322622",
"z  c #342924",
"x  c #332C2B",
"c  c #3C2D24",
"v  c #382E2A",
"b  c #312E34",
"n  c #3D322C",
"m  c #393028",
"M  c #363234",
"N  c #3C3433",
"B  c #3A3739",
"V  c #2E3544",
"C  c #373A46",
"Z  c #3B4558",
"A  c #432B1D",
"S  c #4A2E1C",
"D  c #462716",
"F  c #4D321D",
"G  c #512E17",
"H  c #53321C",
"J  c #5B341C",
"K  c #5C391D",
"L  c #40200E",
"P  c #442D21",
"I  c #432E28",
"U  c #443329",
"Y  c #4B3424",
"T  c #4B3629",
"R  c #4D3A2D",
"E  c #463729",
"W  c #463A36",
"Q  c #533622",
"!  c #543A26",
"~  c #533B2A",
"^  c #5D3B23",
"/  c #5A3D2A",
"(  c #583721",
")  c #543F33",
"_  c #643B1F",
"`  c #633D24",
"'  c #663E25",
"]  c #5C422C",
"[  c #5B402A",
"{  c #554235",
"}  c #5C4333",
"|  c #5C4738",
" . c #4E403C",
".. c #64442C",
"X. c #6C4325",
"o. c #6B452A",
"O. c #6D492C",
"+. c #66462A",
"@. c #634632",
"#. c #654933",
"$. c #6B4B33",
"%. c #664C3B",
"&. c #6B5139",
"*. c #70472B",
"=. c #734A2C",
"-. c #794E2C",
";. c #774926",
":. c #734D32",
">. c #784F30",
",. c #7D512E",
"<. c #75522D",
"1. c #745234",
"2. c #74543A",
"3. c #775A3C",
"4. c #7C5433",
"5. c #7C563B",
"6. c #7C5A3C",
"7. c #6D502E",
"8. c #454659",
"9. c #554D56",
"0. c #595056",
"q. c #524547",
"w. c #5D5769",
"e. c #414C64",
"r. c #695345",
"t. c #6A5855",
"y. c #7C5B41",
"u. c #745742",
"i. c #735E55",
"p. c #645C68",
"a. c #7E6147",
"s. c #78635B",
"d. c #6D6679",
"f. c #746A77",
"g. c #746464",
"h. c #736F84",
"j. c #81522B",
"k. c #835531",
"l. c #845A34",
"z. c #835D3B",
"x. c #8B5B32",
"c. c #8A5D3B",
"v. c #905F35",
"b. c #8B623E",
"n. c #82613A",
"m. c #93643C",
"M. c #95693E",
"N. c #9D6B3D",
"B. c #946238",
"V. c #A06E3C",
"C. c #A9763E",
"Z. c #835E41",
"A. c #846345",
"S. c #8C6342",
"D. c #8A6847",
"F. c #886D57",
"G. c #8B7259",
"H. c #936642",
"J. c #946944",
"K. c #946B4A",
"L. c #9B6D43",
"P. c #986D4B",
"I. c #9E7245",
"U. c #9C724B",
"Y. c #987646",
"T. c #9A7553",
"R. c #976E50",
"E. c #897467",
"W. c #897877",
"Q. c #987B67",
"!. c #A16F43",
"~. c #A47244",
"^. c #A4744B",
"/. c #A57A4D",
"(. c #AB7544",
"). c #A9774A",
"_. c #AD7B4C",
"`. c #AB7B46",
"'. c #A37652",
"]. c #AC7C52",
"[. c #A77C54",
"{. c #B37B45",
"}. c #B27D4C",
"|. c #B97E44",
" X c #B37E52",
".X c #887987",
"XX c #9F805E",
"oX c #98847A",
"OX c #9A8169",
"+X c #AE804B",
"@X c #AC8253",
"#X c #AB855A",
"$X c #B5814E",
"%X c #BA834D",
"&X c #B48254",
"*X c #B4845A",
"=X c #B58B59",
"-X c #BA8553",
";X c #B9875A",
":X c #BD8A56",
">X c #BD8B5B",
",X c #B28853",
"<X c #B9915B",
"1X c #A58A75",
"2X c #BC8D62",
"3X c #B48A62",
"4X c #BF9163",
"5X c #B69876",
"6X c #AC8D6B",
"7X c #C38C54",
"8X c #C18D5B",
"9X c #C38A55",
"0X c #C59057",
"qX c #C5925B",
"wX c #CB925C",
"eX c #C89557",
"rX c #D2975F",
"tX c #D3985C",
"yX c #CC924E",
"uX c #C18F61",
"iX c #C59362",
"pX c #CC9663",
"aX c #CD9A64",
"sX c #CC9B69",
"dX c #C69965",
"fX c #D39C63",
"gX c #DA9E62",
"hX c #D49D68",
"jX c #C39A73",
"kX c #DDA15E",
"lX c #D6A166",
"zX c #D5A36C",
"xX c #DCA364",
"cX c #DCA46B",
"vX c #DDAB6E",
"bX c #D9A773",
"nX c #D4A970",
"mX c #E0A15D",
"MX c #E3AB6C",
"NX c #E5A767",
"BX c #E4AC70",
"VX c #EBB169",
"CX c #EBB473",
"ZX c #E9B777",
"AX c #F4B975",
"SX c #F4B26C",
"DX c #FAC77A",
"FX c #ECC173",
"GX c #928383",
"HX c #AF948B",
"JX c #BCA29B",
"KX c #C2A187",
"LX c #C3AE9F",
"PX c #FCC785",
"IX c #FFD484",
"UX c #FDE885",
/* pixels */
"e.Z C C x d f f d p p 3 d d d q > > p W r.t.s.E.W.GXf.{ N w > > 3 w p p w 3 p v h p p j V B V V ",
"C j j g d f a p p p d a d > > x { y.K.3XjX5XOXHXHXJX5X<X<XY.3.{ h > 2 3 3 w h h p a a s s a s j ",
"M f j f p a p q p p p > > m u.U.#X<X<XT.6X6Xs.5XoXLXHX#X=X@X@X$XY.2.c 3 3 t 3 3 3 a j M s a s s ",
"M B j j a p p q p 3 > z Z.-X_.U.@X#XeX#X#XG.G.E.f.GXoX+X@X@X=X@X@X$X`.1.U : 2 2 3 q s j g a a s ",
"x g j s a 0 3 3 3 > #.`.eX/./.,X@Xn.|  .G.t.B 8.e.h.w.{ E { 3.Y.:X`.Y.yXC.Y = 2 1 2 : : p q > > ",
"q p b k a p 3 ; q D.7X:XY.@X`.&.z g M M r.JXi.q.W.HXf.a.q N W n #.`.:XN.!.%X=.2 - 1 q : q p 3 > ",
"0 0 > 8.Z 2 ; v /.7X/.:X,X7.h g M W B W W G.OXOX.Xf.f.3.E { c R ~ q +.N.`./.&XM.w - 2 : > 3 p > ",
"0 > : j 8.; c 6.M.~.$XY.E 3 r.E x N B m m OX6Xf.d.h.f.F.3Xa.J.6.1.z > W K.&XY.7.l.t * - : : 3 3 ",
"> > > ; a z n.n.Y M.n.w M x 3.A.U 3 h 3 ) 5Xi.w.f.f.f.XX6.,XeXa.q ] | M a 7.M.n.1.,.e # : : : 3 ",
"; ; ; : : V.4.1.+X7.i m N m h | F.u.z 3 r.F.9.g.d.p.W.r.t FXUXDX<XZX@X: 3 ] V.`.[ _.B.* * : : : ",
"; q > & 2.+X`.B.<.* 6.m v v z 3 6 A.~ p | Q.9.9.w.W.1Xq.h E XX,XUXDXaX'.| D.q 4.eX+X7X4.# q : q ",
"; > = U :X/.V.V.* = Y 1.3 w w z w T { x U i.r.t.OXW.p.0.E q #.dXvXfXaXpX<XE t z V.%XY.yX[ q c q ",
"; : ; ^.}.L.+Xe 3 q e #.] 1 : l x } ) N N N #X#Xi.p.w.0.B { nXlXsXsXnXnXdX8 l n n `.K.`.N.* t t ",
": @ ] 0X`.{.] ; { O.1.$.b.6.c l > | } g N  .#Xv b q.9.9.m { nXdXjXnXnXzXAXr.1 z n #.}.c.$XO.> m ",
", ; /.].).V.: h t 4 # * 1 i ! @.| &.L.U a r.| b R.2Xr.k d Y.kXdXsXsXzXbXZXA.- e n c ~.*X}.{.6 q ",
"O T >X/.{.! : : c &.7.] i > * Y 2.T ~ n.$.&.W %.8X4XMX=Xu.<XlXdXjXnXBXZXIXA.$ w z w #.:Xm.7X! + ",
"& z.&XP.!.5 ; @.&XxXDXAXb.; 0 u.W j x a P.A.R ZX-X=X^ VXDXaXdXlXZX3XzXDXPXA.$ n z 6 u &XP.%XJ.+ ",
"5 ^.L.).1.& 5  XiXxXMXfXQ 0 x @.:.) W : %.6.[ IXAXVXt 4 +XMXMXxXfX#XZXDXPXu.- m w U I z.>X].`.5 ",
"T ).L.}.~ . ) 2X#XsXsXAX2.0 U d w P g - Z.c 1 MXDX4.- : J.SXMXCXCXCXAXAXDX| > l -XDXAXsX&X#X&X~ ",
"#./.J.L.z = u. X'.]./.Z.c z l 3 z f > } #.- 3 ! ,.* q = <.NXzXxXhXAXAXCXbXz & K.IXMXAXFX0X2X$X4.",
"z.!.!.c.2 & u. X[.P.fX5.5 z l ~ :.z p } 3 5 3 > ; 3 3 - i kX:X:XuXAXAXMXU.- : lXlX].[.MXlX4X).b.",
"H.H.^.4.- & %.;X XiXNX).# 0 5 9X}.= c ! , $ = : 2 > = = r mX*X0XBXCXCXpXP 3 2 t c 3.T.MXxX;X!.~.",
"J.S.c.o.; # P.NXCXgXrXPX^.t . H._.@ R :.. 5 - - : 5 d O 6 {.cXcXhXMXMX<XP : 3 > , c 2.S.NX0XV._.",
"N.H.^.^ & $  XSXNXNXfXfXSXNX>.}.@.@ 2 H...Y + O % 6 R * 6 |.aXdXhXhXcX-Xt * : 2 T J.&.  V.%Xb.{.",
"}.(.4.^ = * {.NXgXfXpXBX Xm.NXmXrX-Xx.}.fXU.[.U.J.n.P O r (.8X XZ.fXcX^.I ; e 3XAXNXVXA.o.L.$.b.",
":.O.4.^ O O N.NXcXwX). XfXH.gX@.Y / H i H.H.BXcXMX&X3   y _.;X'.F.H.wXJ.6 - - | uXaXxXMXM.~.z.J.",
"/ ^ b.*.: . @.MXcXcXtXH  XNX4.    . .   Q 4.D.2X].R O   S {.*XK.D.P.gXL.P 3 O   6.sXcXcXm.:.! 5.",
"~ ` k.l.*   6 wXgXpXgX:.S L.P ! ~ Y 5 @ - *.6 2.; . & . / ).L.K.^.z.6.1.u   . %.T.2XsX$.m.^.~.S.",
"S v.B.v.u ! / ^.9X X)._.}. X XwXwX8XwX] . 1.6 - & , & . O.].^.c. Xr.    + 4 Y A.U 8XK.1 L.P.N.o.",
"4 -.*.x.L.t $ z. XwX-X!.(.).%X9XiXpXfX].# y.$ . & , , . $.Z.S.'.*XZ.X   #.zXuX;X8X9X&X).m.c.H.A ",
"# o.=.=.M.! P 4 z.rX9X}.^.!.9X9XiXiXaX8X5 Z.@ & @ & , . $.J.!.).-XT.-   D.sXuXiXqX0X7XC.b.l.x.* ",
". Y =.o.1.A $.  Y 9X8X9X9X X%X X{. XiX8X5 3.@ & & & @ % S.B.L.).&X3Xc   K.sX4XuX:X8X}.,.:.x.+.X ",
". 2 :.o.#.^ H./ ] } P. X X-X>X8X*X X9XpXP $.& @ & & . u K.$.N. X X*X@.  K.pX8X8XuX8XN.,.4.x.r X ",
". O / =.=.-.P y.-X7X8X8XqXwX8XuX8X}.-XpX/ / - . , & . P / :.^. X X Xy.  U.iX>X>X8X}.,.4.x.o.X + ",
"o   6 =.=.=.O.  y.7X>X8X>X9X;X>X!.x.J.wX/ Q c . & @ 6 6 4 '.;X].&X&XR.$ [.iX>XuX-Xx.` :.,.y X + ",
". o . P =.Q j.K t :X$X:X8X8X8XiX&X}.P &X$.c :.. & # 4 . y  X*X).&X].'.i }.uX>X8XL._ =.l._ X + O ",
". o . % ^ / X.-.H {.$X}.-X8X7X8X}.wXS K.Z.# L.% . 1 2   Y  X&X X X/.).@.].8XuX^.4.H -.x.$   X X ",
".   .   6 X.' X.X.x.9X$X}.&X:X8X$XeXY Q !.  !.i   5 &   o.9X}. X].U.).P.&X>X).k.' o.-.7   % X X ",
"  .   o   8 X.' ;.D 4.-X}._.>X8X:X0Xk.4 |.y 4.z.X 6 . . c.9X{.]. XT.'.].].!.Q 8 ( X.( X X X X X ",
"o     . X   r _ _ G D X.~.:X].&X8X:XC.^ (.{.L.J.P % 5 >.L.c.(.!.P.R.K.P.m.D S 8 S X.X X X X X + ",
". .   . .     7 7 ;.Q 8 ' x.(.:X;X X X[._.}.{.{.{.~.|. X).^.).).^.L.l.O.' 8 y K H % X X X X % X ",
"    .   X X .   9 J _ ^ K G X.m.!.*XuXuX8X:X:X X}. X X_. X8X&X_.(.k.` J _ *.S L % + + X X X     ",
"X             .   % H ` J ` -.*.` l.!._. X&X9X:X X X X}._.^.m.-.*.D G _ X.X.y   X X % + X X     ",
"                X   O 8 ` j.j.*._ ` J ' *.>.4.c.c.c.l.,.,.' J H ` X.X.X.H $   X X X # X         ",
"          . .     . . O $ 8 ' *.-.;.` *.' 8 P u ' ' ` ( X.' Q J J X.J <   X X X   X X           ",
"            X         # .   % 8 G _ ' ' ' P / Q -.' ' :.+.X.( G L 9 X   X X   X X X             ",
"              .       . #       . % < 7 S u 7 y ` J ' ( D 7 $ X     X +   X     X               ",
"          .   .       o O             . o $ $ $ % % o .               X +     X                 "
};
