#define elephant_width 48
#define elephant_height 43
static char elephant_bits[] = {
  0x00, 0x00, 0x00, 0x00, 0x00, 0x00, 0x00, 0x00, 0x00, 0x00, 0x00, 0x00, 
  0x00, 0x00, 0x00, 0x18, 0x0F, 0x00, 0x00, 0x00, 0x00, 0xE6, 0x18, 0x00, 
  0x00, 0x00, 0xC0, 0x21, 0xE0, 0x00, 0x00, 0x0A, 0x78, 0x10, 0x26, 0x01, 
  0xC0, 0xE4, 0x1F, 0x00, 0x70, 0x06, 0x30, 0x00, 0x02, 0x80, 0xF3, 0x3C, 
  0x18, 0x1F, 0x00, 0xC0, 0x32, 0xDB, 0x84, 0xDF, 0x00, 0xF0, 0x20, 0x2C, 
  0xE4, 0xB1, 0x03, 0xD0, 0x90, 0xCC, 0x64, 0xC8, 0x4C, 0x00, 0x10, 0x7A, 
  0x34, 0xF8, 0x5B, 0x08, 0x10, 0x70, 0x30, 0x80, 0xE7, 0x27, 0x00, 0x11, 
  0x14, 0x40, 0x08, 0x06, 0x00, 0x0E, 0x36, 0x00, 0x33, 0xFC, 0x15, 0x06, 
  0x16, 0x00, 0x9E, 0xBF, 0x16, 0x01, 0x14, 0x00, 0xDC, 0x48, 0xA3, 0x01, 
  0x34, 0x00, 0x78, 0xA4, 0xC7, 0x00, 0x2C, 0x00, 0xB8, 0xC9, 0xC0, 0x00, 
  0xE8, 0x01, 0xB8, 0x05, 0x00, 0x00, 0xF0, 0x00, 0x50, 0x21, 0x00, 0x00, 
  0x00, 0x00, 0x30, 0x12, 0x04, 0x00, 0x00, 0x00, 0x10, 0x02, 0x00, 0x00, 
  0x00, 0x00, 0x00, 0x52, 0x00, 0x00, 0x00, 0x00, 0x00, 0x0E, 0x21, 0x00, 
  0x00, 0x00, 0x00, 0x96, 0x10, 0x00, 0x00, 0x00, 0x00, 0x1A, 0x10, 0x00, 
  0x00, 0x00, 0x00, 0x32, 0x12, 0x20, 0x00, 0x00, 0x00, 0xCA, 0x14, 0x00, 
  0x00, 0x00, 0x00, 0x0A, 0x09, 0x40, 0x00, 0x00, 0x00, 0x08, 0x1E, 0x40, 
  0x00, 0x00, 0x00, 0x2A, 0x16, 0x80, 0x00, 0x00, 0x00, 0x40, 0x36, 0x80, 
  0x00, 0x00, 0x00, 0x22, 0x22, 0x80, 0x00, 0x00, 0x00, 0x62, 0x32, 0x40, 
  0x00, 0x00, 0x00, 0x02, 0x52, 0x40, 0x00, 0x00, 0x00, 0x84, 0x42, 0xC0, 
  0x00, 0x00, 0x00, 0x04, 0xCB, 0x20, 0x00, 0x00, 0x00, 0x80, 0x88, 0x00, 
  0x00, 0x00, 0x00, 0x08, 0x4C, 0x00, 0x00, 0x00, 0x00, 0x28, 0x4D, 0x20, 
  0x00, 0x00, 0x00, 0x38, 0x39, 0x11, };
