#define tkatoms2_width 86
#define tkatoms2_height 88
static char tkatoms2_bits[] = {
  0x00, 0x00, 0x00, 0x00, 0x00, 0x00, 0x00, 0x00, 0x00, 0x00, 0x00, 0x00, 
  0x00, 0x00, 0x00, 0x00, 0x04, 0x00, 0x00, 0x00, 0x00, 0x00, 0x00, 0x00, 
  0x00, 0x00, 0x00, 0x0E, 0x00, 0x00, 0x00, 0x00, 0x00, 0x00, 0x00, 0x00, 
  0x00, 0x00, 0x1B, 0x00, 0x00, 0x00, 0x00, 0x00, 0x00, 0x00, 0x00, 0x00, 
  0x00, 0x0F, 0x00, 0x00, 0x00, 0x00, 0x00, 0x00, 0x00, 0x00, 0x00, 0x00, 
  0x1F, 0x00, 0x00, 0x00, 0x00, 0x00, 0x00, 0x00, 0x00, 0x00, 0x80, 0x29, 
  0x00, 0x00, 0x00, 0x00, 0x00, 0x00, 0x00, 0x00, 0x00, 0x80, 0x49, 0x00, 
  0x00, 0x00, 0x00, 0x00, 0x00, 0x00, 0x00, 0x00, 0xC0, 0x90, 0x00, 0x00, 
  0x00, 0x00, 0x00, 0x00, 0x00, 0x00, 0x00, 0xA0, 0x10, 0x01, 0x00, 0x00, 
  0x00, 0x00, 0x00, 0x00, 0x00, 0x00, 0x50, 0x10, 0x02, 0x00, 0x00, 0x00, 
  0x00, 0x00, 0x00, 0x00, 0x00, 0x28, 0x20, 0x04, 0x00, 0x00, 0x00, 0x00, 
  0x00, 0x00, 0x00, 0x00, 0x24, 0x20, 0x08, 0x00, 0x00, 0x00, 0x00, 0x00, 
  0x00, 0x00, 0x00, 0x3C, 0x40, 0x10, 0x00, 0x00, 0x00, 0x00, 0x00, 0x00, 
  0x00, 0x00, 0x3E, 0x40, 0xE0, 0x01, 0x00, 0x00, 0x00, 0x00, 0x00, 0x00, 
  0x00, 0xFD, 0xFF, 0xFF, 0x01, 0x00, 0x00, 0x00, 0x00, 0x00, 0x00, 0x80, 
  0x3E, 0x87, 0xE0, 0x01, 0x00, 0x00, 0x00, 0x00, 0x00, 0x00, 0xF0, 0x21, 
  0x8F, 0xF0, 0x01, 0x00, 0x00, 0x00, 0x00, 0x00, 0x00, 0xF0, 0x27, 0x87, 
  0x1F, 0x00, 0x00, 0x00, 0x00, 0x00, 0x00, 0x00, 0xF0, 0xF8, 0xFF, 0x17, 
  0x00, 0x00, 0x00, 0x00, 0x00, 0x00, 0x00, 0xE0, 0x40, 0x80, 0x0F, 0x00, 
  0x00, 0x00, 0x00, 0x00, 0x00, 0x00, 0x00, 0x43, 0x80, 0x07, 0x00, 0x00, 
  0x00, 0x00, 0x00, 0x00, 0x00, 0x00, 0x84, 0x40, 0x02, 0x00, 0x00, 0x00, 
  0x00, 0x00, 0x00, 0x00, 0x00, 0x88, 0x40, 0x01, 0x00, 0x00, 0x00, 0x00, 
  0x00, 0x00, 0x00, 0x00, 0x10, 0xA1, 0x00, 0x00, 0x00, 0x00, 0x00, 0x00, 
  0x00, 0x00, 0x00, 0x20, 0xA1, 0x00, 0x00, 0x00, 0x00, 0x00, 0x00, 0x00, 
  0x80, 0x07, 0x40, 0x51, 0x1E, 0x00, 0x00, 0x00, 0x00, 0x00, 0x00, 0x80, 
  0x0F, 0x80, 0x2A, 0x1E, 0x00, 0x00, 0x00, 0x00, 0x00, 0x00, 0x80, 0xFF, 
  0xFF, 0xFF, 0x1F, 0x00, 0x00, 0x00, 0x00, 0x00, 0x00, 0x80, 0x0F, 0x00, 
  0x0F, 0x3E, 0x00, 0x38, 0x00, 0x00, 0x00, 0x00, 0x03, 0x37, 0x06, 0x0F, 
  0xCC, 0x0D, 0x78, 0x00, 0x00, 0x00, 0x80, 0x07, 0xC1, 0x0F, 0x0E, 0x08, 
  0x1E, 0x7C, 0x00, 0x00, 0x00, 0x80, 0x0F, 0x01, 0xFF, 0xFF, 0xFF, 0x3F, 
  0x38, 0x00, 0x00, 0x00, 0x00, 0x07, 0x01, 0x0F, 0x00, 0x08, 0x1E, 0x6C, 
  0x00, 0x00, 0x00, 0x80, 0x0F, 0x01, 0x0F, 0x00, 0x08, 0x1E, 0xA6, 0x00, 
  0x00, 0x00, 0xC0, 0x14, 0x01, 0x02, 0x00, 0x08, 0x08, 0x45, 0x01, 0x00, 
  0x00, 0xA0, 0x24, 0x01, 0x02, 0x00, 0x08, 0x08, 0x43, 0x02, 0x00, 0x00, 
  0x60, 0x48, 0x01, 0x02, 0x00, 0x08, 0x88, 0x82, 0x04, 0x00, 0x00, 0x30, 
  0x88, 0x01, 0x02, 0x00, 0x08, 0x48, 0x81, 0x08, 0x00, 0x00, 0x28, 0x10, 
  0x01, 0x02, 0x00, 0x08, 0xA8, 0x80, 0x10, 0x00, 0x00, 0x14, 0x10, 0x03, 
  0x02, 0x00, 0x08, 0xF8, 0x00, 0x21, 0x00, 0x00, 0x12, 0x10, 0x05, 0x02, 
  0x00, 0x08, 0xF8, 0x00, 0x41, 0x00, 0x00, 0x1F, 0x20, 0x09, 0x02, 0x00, 
  0x08, 0xF8, 0x7F, 0x81, 0x07, 0x00, 0xFF, 0x20, 0xF1, 0x02, 0x00, 0x08, 
  0xFC, 0x9C, 0xFF, 0x07, 0x80, 0x1E, 0xFF, 0xFF, 0x02, 0x00, 0xC8, 0xCF, 
  0x3C, 0x82, 0x07, 0xF0, 0x8D, 0x43, 0xF1, 0x02, 0x00, 0xC8, 0x8B, 0x3C, 
  0xEC, 0x03, 0x78, 0x90, 0xC3, 0xFD, 0x02, 0x00, 0xC8, 0xFF, 0x1F, 0x5E, 
  0x00, 0xF8, 0xBF, 0xC3, 0x0B, 0x02, 0x00, 0xC8, 0x0B, 0xE1, 0x3F, 0x00, 
  0x78, 0xE0, 0xFF, 0x07, 0x02, 0x00, 0x08, 0x0C, 0x01, 0x3E, 0x00, 0x90, 
  0x20, 0xC0, 0x05, 0x02, 0x00, 0x08, 0x08, 0x02, 0x16, 0x00, 0x00, 0x21, 
  0xC0, 0x03, 0x02, 0x00, 0x08, 0x18, 0x02, 0x09, 0x00, 0x00, 0x42, 0x20, 
  0x01, 0x02, 0x00, 0x08, 0x68, 0x04, 0x05, 0x00, 0x00, 0x44, 0xA0, 0x01, 
  0x02, 0x00, 0x08, 0x88, 0x84, 0x02, 0x00, 0x00, 0x88, 0x50, 0x01, 0x02, 
  0x00, 0x0C, 0x08, 0x85, 0x02, 0x00, 0x00, 0x90, 0xA8, 0x07, 0x02, 0x00, 
  0x1F, 0x08, 0x4A, 0x01, 0x00, 0x00, 0x20, 0xE9, 0x07, 0x02, 0x00, 0x1F, 
  0x08, 0xBC, 0x00, 0x00, 0x00, 0xC0, 0xD7, 0xFF, 0xFF, 0xFF, 0x1F, 0x08, 
  0x78, 0x00, 0x00, 0x00, 0x00, 0x8F, 0x1F, 0x07, 0x0E, 0x6F, 0x1C, 0x6C, 
  0x00, 0x00, 0x00, 0x80, 0x0F, 0xE0, 0x0F, 0x1B, 0x80, 0x3F, 0x38, 0x00, 
  0x00, 0x00, 0x80, 0x07, 0x80, 0xFF, 0xFF, 0xFF, 0x3F, 0x10, 0x00, 0x00, 
  0x00, 0x00, 0x03, 0x80, 0x0F, 0x1F, 0x00, 0x3E, 0x00, 0x00, 0x00, 0x00, 
  0x00, 0x00, 0x80, 0x87, 0x29, 0x00, 0x3C, 0x00, 0x00, 0x00, 0x00, 0x00, 
  0x00, 0x00, 0x80, 0x49, 0x00, 0x00, 0x00, 0x00, 0x00, 0x00, 0x00, 0x00, 
  0x00, 0xC0, 0x90, 0x00, 0x00, 0x00, 0x00, 0x00, 0x00, 0x00, 0x00, 0x00, 
  0xA0, 0x10, 0x01, 0x00, 0x00, 0x00, 0x00, 0x00, 0x00, 0x00, 0x00, 0x50, 
  0x10, 0x02, 0x00, 0x00, 0x00, 0x00, 0x00, 0x00, 0x00, 0x00, 0x28, 0x20, 
  0x04, 0x00, 0x00, 0x00, 0x00, 0x00, 0x00, 0x00, 0x00, 0x24, 0x20, 0x08, 
  0x00, 0x00, 0x00, 0x00, 0x00, 0x00, 0x00, 0x00, 0x3C, 0x40, 0x10, 0x00, 
  0x00, 0x00, 0x00, 0x00, 0x00, 0x00, 0x00, 0x3E, 0x40, 0xE0, 0x01, 0x00, 
  0x00, 0x00, 0x00, 0x00, 0x00, 0x00, 0xFD, 0xFF, 0xFF, 0x01, 0x00, 0x00, 
  0x00, 0x00, 0x00, 0x00, 0x80, 0x3E, 0x87, 0xE0, 0x01, 0x00, 0x00, 0x00, 
  0x00, 0x00, 0x00, 0xF0, 0x21, 0x8F, 0xF0, 0x01, 0x00, 0x00, 0x00, 0x00, 
  0x00, 0x00, 0xF0, 0x27, 0x87, 0x1F, 0x00, 0x00, 0x00, 0x00, 0x00, 0x00, 
  0x00, 0xF0, 0xF8, 0xFF, 0x17, 0x00, 0x00, 0x00, 0x00, 0x00, 0x00, 0x00, 
  0xE0, 0x40, 0x80, 0x0F, 0x00, 0x00, 0x00, 0x00, 0x00, 0x00, 0x00, 0x00, 
  0x43, 0x80, 0x07, 0x00, 0x00, 0x00, 0x00, 0x00, 0x00, 0x00, 0x00, 0x84, 
  0x40, 0x02, 0x00, 0x00, 0x00, 0x00, 0x00, 0x00, 0x00, 0x00, 0x88, 0x40, 
  0x01, 0x00, 0x00, 0x00, 0x00, 0x00, 0x00, 0x00, 0x00, 0x10, 0xA1, 0x00, 
  0x00, 0x00, 0x00, 0x00, 0x00, 0x00, 0x00, 0x00, 0x20, 0xA1, 0x00, 0x00, 
  0x00, 0x00, 0x00, 0x00, 0x00, 0x00, 0x00, 0x40, 0x51, 0x00, 0x00, 0x00, 
  0x00, 0x00, 0x00, 0x00, 0x00, 0x00, 0x80, 0x2A, 0x00, 0x00, 0x00, 0x00, 
  0x00, 0x00, 0x00, 0x00, 0x00, 0x00, 0x1F, 0x00, 0x00, 0x00, 0x00, 0x00, 
  0x00, 0x00, 0x00, 0x00, 0x00, 0x0F, 0x00, 0x00, 0x00, 0x00, 0x00, 0x00, 
  0x00, 0x00, 0x00, 0x00, 0x0F, 0x00, 0x00, 0x00, 0x00, 0x00, 0x00, 0x00, 
  0x00, 0x00, 0x00, 0x0E, 0x00, 0x00, 0x00, 0x00, 0x00, 0x00, 0x00, 0x00, 
  0x00, 0x00, 0x00, 0x00, 0x00, 0x00, 0x00, 0x00, };
